HIERARCHY
ROOT Hips
{
	OFFSET 0.000000 83.214638 0.000000
	CHANNELS 6 Xposition Yposition Zposition Xrotation Yrotation Zrotation
	JOINT Pelvis
	{
		OFFSET 0.000000 0.000000 0.000000
		CHANNELS 3 Xrotation Yrotation Zrotation
		JOINT LeftUpLeg
		{
			OFFSET 8.479700 -4.795502 -0.379100
			CHANNELS 3 Xrotation Yrotation Zrotation
			JOINT LeftLeg
			{
				OFFSET 0.024144 -32.555107 0.112900
				CHANNELS 3 Xrotation Yrotation Zrotation
				JOINT LeftFoot
				{
					OFFSET -0.024144 -32.638630 -3.012600
					CHANNELS 3 Xrotation Yrotation Zrotation
					JOINT LeftToeBase
					{
						OFFSET 0.970200 -13.225400 11.864200
						CHANNELS 3 Xrotation Yrotation Zrotation
						End Site
						{
							OFFSET 0.000000 12.319262 0.000000
						}
					}
					JOINT LFootTongue
					{
						OFFSET 1.142400 -1.059800 6.665200
						CHANNELS 3 Xrotation Yrotation Zrotation
						End Site
						{
							OFFSET 0.000000 12.319262 0.000000
						}
					}
				}
				JOINT LeftPantLeg
				{
					OFFSET 0.918482 -16.533964 -2.284700
					CHANNELS 3 Xrotation Yrotation Zrotation
					End Site
					{
						OFFSET 0.350399 24.744368 0.000000
					}
				}
			}
		}
		JOINT RightUpLeg
		{
			OFFSET -8.479700 -4.795502 -0.379100
			CHANNELS 3 Xrotation Yrotation Zrotation
			JOINT RightLeg
			{
				OFFSET -0.023144 -32.555092 0.112900
				CHANNELS 3 Xrotation Yrotation Zrotation
				JOINT RightFoot
				{
					OFFSET 0.023144 -32.638641 -3.012700
					CHANNELS 3 Xrotation Yrotation Zrotation
					JOINT RightToeBase
					{
						OFFSET -0.970200 -13.225400 11.864200
						CHANNELS 3 Xrotation Yrotation Zrotation
						End Site
						{
							OFFSET 0.000000 12.319244 0.000000
						}
					}
					JOINT RFootTongue
					{
						OFFSET -1.142200 -1.059800 6.665200
						CHANNELS 3 Xrotation Yrotation Zrotation
						End Site
						{
							OFFSET 0.000000 12.319243 0.000000
						}
					}
				}
				JOINT RightPantLeg
				{
					OFFSET -0.919482 -16.533978 -2.284800
					CHANNELS 3 Xrotation Yrotation Zrotation
					End Site
					{
						OFFSET -0.350400 24.744419 0.000000
					}
				}
			}
		}
	}
	JOINT Spine
	{
		OFFSET 0.000000 7.722000 1.166200
		CHANNELS 3 Xrotation Yrotation Zrotation
		JOINT Spine1
		{
			OFFSET 0.000000 12.024101 0.248800
			CHANNELS 3 Xrotation Yrotation Zrotation
			JOINT Spine2
			{
				OFFSET 0.000000 11.502998 -0.491200
				CHANNELS 3 Xrotation Yrotation Zrotation
				JOINT Neck
				{
					OFFSET 0.000000 18.430702 -3.123100
					CHANNELS 3 Xrotation Yrotation Zrotation
					JOINT Head
					{
						OFFSET 0.000000 9.051102 1.034000
						CHANNELS 3 Xrotation Yrotation Zrotation
						JOINT HairB
						{
							OFFSET 0.208400 24.786102 24.822300
							CHANNELS 3 Xrotation Yrotation Zrotation
							End Site
							{
								OFFSET 0.000000 32.263779 0.000000
							}
						}
						JOINT HairA
						{
							OFFSET -7.081100 24.428299 23.196600
							CHANNELS 3 Xrotation Yrotation Zrotation
							End Site
							{
								OFFSET 0.000000 32.263779 0.000000
							}
						}
						JOINT Hat
						{
							OFFSET 16.728800 15.048294 -15.439601
							CHANNELS 3 Xrotation Yrotation Zrotation
							End Site
							{
								OFFSET 0.000000 32.263779 0.000000
							}
						}
					}
				}
				JOINT LeftShoulder
				{
					OFFSET 6.197800 13.665199 -4.064700
					CHANNELS 3 Xrotation Yrotation Zrotation
					JOINT LeftArm
					{
						OFFSET 7.778100 -0.187103 -1.709300
						CHANNELS 3 Xrotation Yrotation Zrotation
						JOINT LeftForeArm
						{
							OFFSET 22.049376 0.000000 0.000000
							CHANNELS 3 Xrotation Yrotation Zrotation
							JOINT LeftHand
							{
								OFFSET 23.009392 0.000000 0.000000
								CHANNELS 3 Xrotation Yrotation Zrotation
								JOINT LeftHandThumb1
								{
									OFFSET 3.507191 -2.063065 3.133727
									CHANNELS 3 Xrotation Yrotation Zrotation
									JOINT LeftHandThumb2
									{
										OFFSET 3.101337 -1.790558 1.790558
										CHANNELS 3 Xrotation Yrotation Zrotation
										JOINT LeftHandThumb3
										{
											OFFSET 3.058640 -1.765907 1.765906
											CHANNELS 3 Xrotation Yrotation Zrotation
											End Site
											{
												OFFSET -0.415260 3.926476 -0.049563
											}
										}
									}
								}
								JOINT LeftHandIndex1
								{
									OFFSET 11.334419 -0.901459 3.706815
									CHANNELS 3 Xrotation Yrotation Zrotation
									JOINT LeftHandIndex2
									{
										OFFSET 3.283112 0.000000 0.000000
										CHANNELS 3 Xrotation Yrotation Zrotation
										JOINT LeftHandIndex3
										{
											OFFSET 3.323853 0.000000 0.000000
											CHANNELS 3 Xrotation Yrotation Zrotation
											End Site
											{
												OFFSET -1.135597 3.097809 0.402452
											}
										}
									}
								}
								JOINT LeftHandMiddle1
								{
									OFFSET 11.335861 0.000000 0.000000
									CHANNELS 3 Xrotation Yrotation Zrotation
									JOINT LeftHandMiddle2
									{
										OFFSET 3.410492 0.000000 0.000000
										CHANNELS 3 Xrotation Yrotation Zrotation
										JOINT LeftHandMiddle3
										{
											OFFSET 3.312172 0.000000 0.000000
											CHANNELS 3 Xrotation Yrotation Zrotation
											End Site
											{
												OFFSET -1.150200 3.080154 0.400270
											}
										}
									}
								}
								JOINT LeftHandRing1
								{
									OFFSET 11.514786 -0.013176 -3.003090
									CHANNELS 3 Xrotation Yrotation Zrotation
									JOINT LeftHandRing2
									{
										OFFSET 3.053307 0.000000 0.000000
										CHANNELS 3 Xrotation Yrotation Zrotation
										JOINT LeftHandRing3
										{
											OFFSET 3.295807 0.000000 0.000000
											CHANNELS 3 Xrotation Yrotation Zrotation
											End Site
											{
												OFFSET -1.281006 3.013344 0.375733
											}
										}
									}
								}
								JOINT LeftHandPinky1
								{
									OFFSET 10.518692 -0.960396 -5.730441
									CHANNELS 3 Xrotation Yrotation Zrotation
									JOINT LeftHandPinky2
									{
										OFFSET 2.861649 0.000000 0.000000
										CHANNELS 3 Xrotation Yrotation Zrotation
										JOINT LeftHandPinky3
										{
											OFFSET 2.863380 0.000000 0.000000
											CHANNELS 3 Xrotation Yrotation Zrotation
											End Site
											{
												OFFSET -0.843597 2.711159 0.369971
											}
										}
									}
								}
							}
							JOINT LSleeve
							{
								OFFSET 6.676277 -0.344902 -1.011730
								CHANNELS 3 Xrotation Yrotation Zrotation
								End Site
								{
									OFFSET 0.000000 14.885353 0.000000
								}
							}
						}
					}
				}
				JOINT RightShoulder
				{
					OFFSET -6.197800 13.665199 -4.064700
					CHANNELS 3 Xrotation Yrotation Zrotation
					JOINT RightArm
					{
						OFFSET -7.778100 -0.187103 -1.709300
						CHANNELS 3 Xrotation Yrotation Zrotation
						JOINT RightForeArm
						{
							OFFSET -22.049376 0.000000 0.000000
							CHANNELS 3 Xrotation Yrotation Zrotation
							JOINT RightHand
							{
								OFFSET -23.009392 0.000000 0.000000
								CHANNELS 3 Xrotation Yrotation Zrotation
								JOINT RightHandThumb1
								{
									OFFSET -3.507191 -2.063065 3.133727
									CHANNELS 3 Xrotation Yrotation Zrotation
									JOINT RightHandThumb2
									{
										OFFSET -3.101337 -1.790558 1.790558
										CHANNELS 3 Xrotation Yrotation Zrotation
										JOINT RightHandThumb3
										{
											OFFSET -3.058640 -1.765907 1.765906
											CHANNELS 3 Xrotation Yrotation Zrotation
											End Site
											{
												OFFSET 0.415260 3.926476 -0.049563
											}
										}
									}
								}
								JOINT RightHandIndex1
								{
									OFFSET -11.334419 -0.901459 3.706815
									CHANNELS 3 Xrotation Yrotation Zrotation
									JOINT RightHandIndex2
									{
										OFFSET -3.283112 0.000000 0.000000
										CHANNELS 3 Xrotation Yrotation Zrotation
										JOINT RightHandIndex3
										{
											OFFSET -3.323853 0.000000 0.000000
											CHANNELS 3 Xrotation Yrotation Zrotation
											End Site
											{
												OFFSET 1.135597 3.097809 0.402452
											}
										}
									}
								}
								JOINT RightHandMiddle1
								{
									OFFSET -11.335861 0.000000 0.000000
									CHANNELS 3 Xrotation Yrotation Zrotation
									JOINT RightHandMiddle2
									{
										OFFSET -3.410492 0.000000 0.000000
										CHANNELS 3 Xrotation Yrotation Zrotation
										JOINT RightHandMiddle3
										{
											OFFSET -3.312172 0.000000 0.000000
											CHANNELS 3 Xrotation Yrotation Zrotation
											End Site
											{
												OFFSET 1.150200 3.080154 0.400270
											}
										}
									}
								}
								JOINT RightHandRing1
								{
									OFFSET -11.514786 -0.013176 -3.003090
									CHANNELS 3 Xrotation Yrotation Zrotation
									JOINT RightHandRing2
									{
										OFFSET -3.053307 0.000000 0.000000
										CHANNELS 3 Xrotation Yrotation Zrotation
										JOINT RightHandRing3
										{
											OFFSET -3.295807 0.000000 0.000000
											CHANNELS 3 Xrotation Yrotation Zrotation
											End Site
											{
												OFFSET 1.281006 3.013344 0.375733
											}
										}
									}
								}
								JOINT RightHandPinky1
								{
									OFFSET -10.518692 -0.960396 -5.730441
									CHANNELS 3 Xrotation Yrotation Zrotation
									JOINT RightHandPinky2
									{
										OFFSET -2.861649 0.000000 0.000000
										CHANNELS 3 Xrotation Yrotation Zrotation
										JOINT RightHandPinky3
										{
											OFFSET -2.863380 0.000000 0.000000
											CHANNELS 3 Xrotation Yrotation Zrotation
											End Site
											{
												OFFSET 0.843597 2.711159 0.369971
											}
										}
									}
								}
							}
							JOINT RSleeve
							{
								OFFSET -6.676277 -0.344902 -1.011730
								CHANNELS 3 Xrotation Yrotation Zrotation
								End Site
								{
									OFFSET 0.000000 14.885353 0.000000
								}
							}
						}
					}
				}
				JOINT Backpack
				{
					OFFSET 0.000000 -2.471497 36.677502
					CHANNELS 3 Xrotation Yrotation Zrotation
					End Site
					{
						OFFSET 0.000000 20.427315 0.000000
					}
				}
				JOINT Hood
				{
					OFFSET 0.000000 18.754097 -10.431000
					CHANNELS 3 Xrotation Yrotation Zrotation
					JOINT Hood1
					{
						OFFSET 0.000000 -5.011002 -7.685901
						CHANNELS 3 Xrotation Yrotation Zrotation
						End Site
						{
							OFFSET 0.000000 9.175140 0.000000
						}
					}
				}
				JOINT LHoodieString
				{
					OFFSET 5.250500 16.397697 3.089900
					CHANNELS 3 Xrotation Yrotation Zrotation
					JOINT LHoodieString1
					{
						OFFSET 0.257700 -6.364304 3.694600
						CHANNELS 3 Xrotation Yrotation Zrotation
						JOINT LHoodieString2
						{
							OFFSET 0.000000 -9.643799 2.679100
							CHANNELS 3 Xrotation Yrotation Zrotation
							End Site
							{
								OFFSET 0.000000 10.009018 0.000000
							}
						}
					}
				}
				JOINT RHoodieString
				{
					OFFSET -5.250500 16.397697 3.089900
					CHANNELS 3 Xrotation Yrotation Zrotation
					JOINT RHoodieString1
					{
						OFFSET -0.257700 -6.364304 3.694600
						CHANNELS 3 Xrotation Yrotation Zrotation
						JOINT RHoodieString2
						{
							OFFSET 0.000000 -9.643799 2.679100
							CHANNELS 3 Xrotation Yrotation Zrotation
							End Site
							{
								OFFSET 0.000000 10.009018 0.000000
							}
						}
					}
				}
			}
			JOINT LBackpack_Strap
			{
				OFFSET 15.223200 -7.719803 -6.610900
				CHANNELS 3 Xrotation Yrotation Zrotation
				End Site
				{
					OFFSET 0.000000 16.040596 0.000000
				}
			}
			JOINT RBackpack_Strap
			{
				OFFSET -15.223000 -7.719803 -6.610900
				CHANNELS 3 Xrotation Yrotation Zrotation
				End Site
				{
					OFFSET 0.000000 16.040596 0.000000
				}
			}
		}
	}
	JOINT BoyFacialAnim_Joint
	{
		OFFSET 1.000000 -82.208099 -1.550900
		CHANNELS 3 Xrotation Yrotation Zrotation
		End Site
		{
			OFFSET 0.000000 30.012791 0.000000
		}
	}
}
MOTION
Frames: 4
Frame Time: 0.033333
-0.203960 80.775398 0.570617 2.379620 -11.981318 -0.555495 -0.000000 0.000000 0.000000 -19.395365 11.951076 13.840595 20.691978 5.101117 1.905632 -2.253061 5.345798 -11.029044 -0.000000 0.000000 -0.000000 -0.000000 0.000000 -0.000000 -0.000000 -0.000001 -0.000001 -12.771662 -8.405454 -6.876799 21.726335 -5.116559 -1.776093 -10.545377 -0.583118 8.993726 0.000000 -0.000000 0.000000 0.000000 -0.000000 0.000000 0.000000 -0.000001 0.000001 9.422394 2.006493 0.474668 2.870546 4.029874 0.917349 -9.001476 3.754920 1.727680 -3.883555 2.069977 -6.982860 5.912159 -0.105677 7.514151 -0.000000 0.000000 0.000000 -0.000000 0.000000 0.000000 -0.000000 0.000000 0.000000 -1.295776 0.077910 -4.827726 -3.652872 -0.069570 -73.006956 -0.000028 -15.717648 -0.000199 2.306662 0.165003 -5.013154 8.265288 -7.734422 18.880832 5.407303 20.572716 -9.835145 0.000001 -0.000001 0.000000 0.273644 -4.246508 -3.910715 0.097422 -0.794734 -17.447660 -0.000001 0.000002 -0.000003 0.248936 -1.909213 -12.465000 -0.126966 -0.878876 -17.469114 0.000002 -0.000001 0.000002 0.311226 -1.760786 -17.977570 -0.194383 -1.090506 -20.983239 -0.000000 0.000001 0.000002 0.622106 -0.700686 -24.132868 -0.024660 -0.945238 -17.465354 0.000001 -0.000000 -0.000002 0.000000 0.000001 -0.000002 -1.295768 -0.077851 4.827739 3.909177 3.069883 67.997689 -0.000005 18.089251 0.000035 2.313889 -1.592971 -2.170154 8.265294 7.734426 -18.880825 5.407327 -20.572661 9.835183 0.000001 0.000001 0.000000 0.272400 4.252690 3.917208 0.097368 0.794938 17.452774 -0.000000 -0.000001 -0.000000 0.250217 1.903661 12.463743 -0.126981 0.878930 17.470128 0.000002 0.000002 0.000000 0.310438 1.762620 17.988995 -0.194371 1.090576 20.984703 -0.000001 0.000000 0.000002 0.626378 0.701985 24.132090 -0.024633 0.945177 17.464104 0.000001 -0.000001 0.000000 0.000000 -0.000000 -0.000000 -0.000000 0.000000 -0.000000 -0.000000 0.000000 -0.000000 -0.000000 0.000000 -0.000000 -0.000000 0.000000 -0.000000 -0.000000 0.000000 -0.000000 -0.000000 0.000000 0.000000 -0.000000 0.000000 -0.000000 -0.000000 0.000000 -0.000000 -0.000000 0.000000 0.000000 -0.000001 -0.000001 0.000000 -0.000001 -0.000001 0.000000 -0.000000 0.000000 0.000000 
-0.242871 80.848656 0.597651 2.898360 -12.003000 -0.318904 -0.000000 0.000000 -0.000000 -19.471119 11.995545 13.637727 19.927488 5.183851 1.866377 -1.877668 5.351460 -10.992389 0.000000 0.000000 -0.000000 0.000000 0.000000 -0.000000 -0.000000 -0.000001 -0.000000 -13.095264 -8.358657 -6.952314 21.316865 -5.138230 -1.747523 -10.340910 -0.572561 8.939288 -0.000000 0.000000 0.000000 -0.000000 0.000000 0.000000 0.000000 0.000000 -0.000001 9.385956 1.989636 0.464561 2.854517 3.962754 0.879209 -9.016285 3.674783 1.676083 -3.706338 2.232907 -6.859987 5.637903 0.074517 7.286821 0.000000 0.000000 -0.000000 0.000000 0.000000 -0.000000 0.000000 0.000000 -0.000000 -1.198667 0.614520 -4.902614 -2.446417 0.699357 -72.223766 0.769970 -14.569972 -0.238257 2.415919 -2.042224 -4.211626 8.256324 -7.858420 18.850596 5.458765 20.634130 -9.850333 0.000000 -0.000000 0.000002 0.271838 -4.270988 -4.504517 0.089020 -0.821056 -18.041393 -0.000002 0.000000 -0.000002 0.241743 -1.940664 -13.282005 -0.139750 -0.918562 -18.285707 0.000003 -0.000002 -0.000000 0.297973 -1.806429 -18.950995 -0.213304 -1.138680 -21.956483 -0.000001 0.000000 -0.000004 0.604786 -0.748075 -25.106005 -0.041116 -0.996150 -18.438348 -0.000001 0.000001 -0.000000 0.000000 -0.000001 0.000001 -1.271074 -0.212460 4.654490 5.219202 2.903478 67.877443 -0.372655 16.578198 0.622488 2.777474 -0.498613 -3.417932 8.255511 7.871291 -18.847552 5.463995 -20.640586 9.851967 -0.000001 0.000001 0.000001 0.176218 4.135960 4.649328 0.088060 0.823996 18.108080 -0.000001 -0.000001 -0.000000 0.241554 1.944605 13.365400 -0.141125 0.922717 18.371576 0.000000 -0.000001 -0.000000 0.035228 1.731170 19.012315 -0.215338 1.143778 22.058967 -0.000001 -0.000000 0.000000 0.321216 0.729356 25.183579 -0.042773 1.001159 18.538310 -0.000001 0.000000 -0.000001 0.000000 0.000000 -0.000001 0.000000 0.000000 0.000001 0.000000 0.000000 0.000001 0.000000 0.000000 0.000001 0.000000 0.000000 0.000001 0.000000 0.000000 0.000000 0.000000 0.000000 0.000000 0.000000 0.000000 0.000001 0.000000 0.000000 0.000000 0.000000 0.000000 0.000000 0.000001 -0.000000 -0.000000 0.000001 -0.000000 -0.000000 -0.000000 0.000000 -0.000000 
-0.321150 80.928688 0.620866 3.624096 -12.027111 -0.022240 -0.000000 0.000000 0.000000 -19.664014 12.027151 13.438696 18.985131 5.283816 1.809049 -1.394298 5.365595 -10.972409 -0.000000 -0.000000 -0.000000 -0.000000 -0.000000 0.000000 0.000000 -0.000001 0.000001 -13.618029 -8.296085 -7.006098 20.887497 -5.169496 -1.715761 -10.125215 -0.570019 8.847661 -0.000000 0.000000 0.000000 -0.000000 0.000000 0.000000 -0.000001 -0.000000 0.000001 9.299863 1.981556 0.441250 2.834704 3.843926 0.813569 -9.033626 3.514235 1.586321 -3.039084 2.480909 -6.715953 5.052386 0.374892 6.962352 0.000001 -0.000000 0.000000 0.000001 -0.000000 0.000000 0.000001 -0.000000 0.000000 -1.048337 1.143255 -5.159226 -0.768782 0.850269 -71.032151 0.830474 -13.654880 -1.104764 2.240485 -5.017320 -3.325034 8.221854 -8.193265 18.762528 5.598555 20.800679 -9.891768 0.000001 -0.000001 0.000000 0.265969 -4.321042 -6.117030 0.064806 -0.892037 -19.653227 -0.000001 -0.000001 -0.000002 0.220139 -2.038273 -15.499316 -0.177267 -1.025254 -20.502310 0.000003 -0.000004 -0.000000 0.252472 -1.926655 -21.593612 -0.268755 -1.267780 -24.598224 -0.000001 0.000001 -0.000002 0.543224 -0.883231 -27.746995 -0.090093 -1.132495 -21.079685 -0.000000 0.000001 -0.000000 0.000000 0.000001 0.000002 -1.194755 0.170986 4.760692 6.235544 2.612103 67.313031 1.368961 14.577237 1.373897 2.656008 0.877460 -5.239494 8.217698 8.238782 -18.750988 5.617285 -20.823398 9.897591 0.000002 0.000001 -0.000000 -0.066478 3.812576 6.622664 0.061307 0.901789 19.876298 -0.000002 -0.000001 0.000003 0.217250 2.052201 15.798499 -0.182692 1.039665 20.803735 -0.000001 0.000001 -0.000000 -0.698617 1.605568 21.773072 -0.276815 1.285248 24.957675 -0.000003 -0.000001 0.000002 -0.500817 0.745796 28.024666 -0.097077 1.150345 21.436670 0.000001 -0.000002 0.000002 0.000000 0.000001 -0.000000 0.000001 -0.000000 -0.000000 0.000001 -0.000000 -0.000000 0.000001 -0.000000 -0.000000 0.000001 -0.000000 -0.000000 0.000001 -0.000000 -0.000000 0.000001 -0.000000 0.000000 0.000001 -0.000000 -0.000000 0.000001 -0.000000 -0.000000 0.000001 -0.000000 0.000000 0.000001 -0.000001 0.000000 0.000001 -0.000001 0.000000 -0.000000 0.000000 0.000000 
-0.431270 81.015846 0.645459 4.543387 -12.052200 0.327798 -0.000000 -0.000000 0.000000 -19.954681 12.053926 13.245112 17.860171 5.397736 1.719408 -0.806714 5.385214 -10.950289 -0.000000 0.000000 -0.000000 -0.000000 0.000000 -0.000000 -0.000000 -0.000000 0.000002 -14.314502 -8.239835 -7.046503 20.414491 -5.194517 -1.676263 -9.887197 -0.560592 8.720976 -0.000000 0.000000 -0.000000 -0.000000 0.000000 -0.000000 -0.000000 -0.000001 0.000001 9.178558 2.010766 0.422022 2.817384 3.750689 0.751292 -9.048332 3.350089 1.504661 -2.005191 2.755268 -6.521611 4.058447 0.721472 6.600736 0.000001 0.000000 0.000000 0.000001 0.000000 0.000000 0.000001 0.000000 0.000000 -0.862029 1.661121 -5.533432 0.922244 0.605021 -69.285719 0.244280 -12.157568 -2.882453 2.843501 -7.234027 -2.095339 8.171040 -8.687584 18.634074 5.804903 21.045778 -9.953659 0.000001 0.000001 0.000005 0.251477 -4.400131 -8.493808 0.025504 -0.995325 -22.028682 0.000000 -0.000000 -0.000004 0.178207 -2.183715 -18.767236 -0.240045 -1.179709 -23.769192 0.000001 -0.000001 -0.000002 0.175116 -2.103206 -25.488454 -0.361215 -1.453080 -28.491854 -0.000001 0.000002 -0.000002 0.441192 -1.074859 -31.639574 -0.173539 -1.328855 -24.972533 -0.000001 0.000003 0.000000 -0.000000 0.000000 -0.000000 -1.044929 0.767927 5.239763 7.148426 2.104176 66.200283 4.247840 12.249528 2.387878 2.170519 2.108260 -7.325142 8.162535 8.776890 -18.611521 5.841784 -21.090207 9.965188 0.000002 -0.000001 -0.000003 -0.375672 3.320006 9.501528 0.017897 1.013906 22.460698 -0.000001 0.000000 0.000002 0.170117 2.211361 19.354956 -0.252319 1.207191 24.358814 -0.000001 0.000001 0.000002 -1.735699 1.303988 25.805788 -0.379299 1.485993 29.194817 0.000000 -0.000001 -0.000001 -1.688538 0.627250 32.184384 -0.189772 1.362990 25.673308 0.000001 0.000000 -0.000003 -0.000000 0.000000 -0.000000 0.000000 0.000000 -0.000000 0.000000 0.000000 -0.000000 0.000000 0.000000 -0.000000 0.000000 0.000000 -0.000000 0.000000 0.000000 -0.000000 0.000000 0.000000 0.000000 0.000000 0.000000 -0.000000 0.000000 0.000000 -0.000000 0.000000 0.000000 0.000000 0.000001 0.000000 0.000000 0.000001 0.000000 0.000000 -0.000000 -0.000000 0.000000 
